<svg xmlns="http://www.w3.org/2000/svg" width="26" height="14" viewBox="0 0 26 14"><defs><style>.cls-1{fill:#d9d9d9;fill-rule:evenodd}</style></defs><path id="Фигура_26" data-name="Фигура 26" class="cls-1" d="M507.279 191.213h1.6v2.445a1.456 1.456 0 0 0 1.492 1.417 1.533 1.533 0 0 0 .709-.178v.685a1.494 1.494 0 0 0 2.984 0v-4.369h9.491v4.369a1.494 1.494 0 0 0 2.984 0v-.682a1.537 1.537 0 0 0 .71.178 1.456 1.456 0 0 0 1.492-1.417v-2.444h1.978a1.216 1.216 0 1 0 0-2.428h-1.978v-2.444a1.456 1.456 0 0 0-1.492-1.417 1.537 1.537 0 0 0-.71.178v-.686a1.494 1.494 0 0 0-2.984 0v4.369h-9.491v-4.369a1.494 1.494 0 0 0-2.984 0v.68a1.533 1.533 0 0 0-.709-.178 1.456 1.456 0 0 0-1.492 1.417v2.443h-1.6a1.216 1.216 0 1 0 0 2.428zm0 0" transform="translate(-506 -183)"/></svg>