<svg xmlns="http://www.w3.org/2000/svg" width="20" height="20" viewBox="0 0 20 20"><defs><style>.cls-1{fill:#d9d9d9;fill-rule:evenodd}</style></defs><path id="Фигура_29" data-name="Фигура 29" class="cls-1" d="M408.443 182.215a1.887 1.887 0 0 0-1.117-.544 1.909 1.909 0 0 0-.541-1.115 1.9 1.9 0 0 0-2.882 2.462l-1.365 1.366a.806.806 0 0 0-.915.157l-1.516 1.516c-2.888.092-7.19 2.419-8.789 4.018-2.882 2.882-2.966 6.371-.866 8.471s5.589 2.016 8.472-.866c1.6-1.6 3.926-5.9 4.018-8.788l1.516-1.516a.8.8 0 0 0 .157-.914l1.366-1.366a1.882 1.882 0 0 0 1.118.363 1.9 1.9 0 0 0 1.344-3.244zm-15.533 15.422a.538.538 0 0 1-.76 0 4.238 4.238 0 0 1-.794-4.832.537.537 0 1 1 .986.425 3.2 3.2 0 0 0 .568 3.647.539.539 0 0 1 0 .76zm14.773-13.494a.82.82 0 0 1-.584.242.82.82 0 0 1-.584-.242.886.886 0 0 1-.095-.113.537.537 0 0 0-.82-.073l-1.711 1.711-.558-.558 1.711-1.711a.538.538 0 0 0-.072-.82.906.906 0 0 1-.114-.094.827.827 0 0 1 1.169-1.169.82.82 0 0 1 .216.789.538.538 0 0 0 .653.653.834.834 0 0 1 .2-.025.819.819 0 0 1 .584.241.828.828 0 0 1 0 1.169zm0 0" transform="translate(-389 -180)"/></svg>