<svg xmlns="http://www.w3.org/2000/svg" width="15" height="19.969" viewBox="0 0 15 19.969"><path class="cls-1" d="M7.925 5.769a16.084 16.084 0 0 1 1.529-2.233 14 14 0 0 1 1.672-1.561.226.226 0 0 0-.04-.41L9.748.907a.474.474 0 0 0-.572.15 24.526 24.526 0 0 0-2.154 4.674c-3.6-1.714-7.023.687-7.023 4.862 0 4.361 3.188 10.986 7.5 8.986 4.541 2.068 7.5-4.624 7.5-8.986 0-4.211-3.077-6.68-7.075-4.824zm0 0l-.807-1.412a.478.478 0 0 0 .409-.431 4.137 4.137 0 0 0-1-2.9A3.664 3.664 0 0 0 3.778-.023a.479.479 0 0 0-.409.431 4.135 4.135 0 0 0 .994 2.9 3.669 3.669 0 0 0 2.751 1.047zm0 0"/></svg>