<svg xmlns="http://www.w3.org/2000/svg" width="12.91" height="11" viewBox="0 0 12.91 11"><defs><style>.cls-1{fill:#fff;fill-rule:evenodd}</style></defs><path id="Фигура_44" data-name="Фигура 44" class="cls-1" d="M1427.49 74.943a3.4 3.4 0 0 1 3.1-1.942 3.436 3.436 0 0 1 3.38 3.238 2.866 2.866 0 0 1-.1 1.223 5.383 5.383 0 0 1-1.79 2.75L1427.49 84l-4.51-3.786a5.3 5.3 0 0 1-1.78-2.75 3.01 3.01 0 0 1-.11-1.223 3.442 3.442 0 0 1 3.38-3.241 3.269 3.269 0 0 1 3.02 1.942zm0 0" transform="translate(-1421.09 -73)"/></svg>