<svg xmlns="http://www.w3.org/2000/svg" width="18" height="12.094" viewBox="0 0 18 12.094"><defs><style>.cls-1{fill:#fff;fill-rule:evenodd}</style></defs><path id="Фигура_43" data-name="Фигура 43" class="cls-1" d="M1285.97 76.778l-3.31-5.883h-.01v-.002l-4.81 1.481a.114.114 0 0 1-.13-.05 1.58 1.58 0 0 0-.76-.605.118.118 0 0 1-.08-.114V71h-.95v.6a.12.12 0 0 1-.08.116 1.634 1.634 0 0 0-1.04 1.54v.053l-3.89.507v.01l-2.89 5.69-.03.124a3.535 3.535 0 0 0 7.06-.008.582.582 0 0 1-.04-.122l-2.79-5.047a.127.127 0 0 1 .07-.193l2.75-.155a1.58 1.58 0 0 0 1.36.791 1.628 1.628 0 0 0 1.6-1.65.1.1 0 0 0-.01-.053l3.13-.964a.126.126 0 0 1 .15.178l-2.29 4.364-.03.124a3.535 3.535 0 0 0 7.06-.008c-.01-.038-.03-.078-.04-.119zm-16.98 2.585l2.32-4.426a.124.124 0 0 1 .22-.015l2.41 4.426a.132.132 0 0 1-.11.2h-4.73a.127.127 0 0 1-.11-.185zm5.88-5.648a.075.075 0 0 0 .01.045.074.074 0 0 1-.01-.046zm1.53.319a.775.775 0 1 1 .75-.775.759.759 0 0 1-.75.774zm1.52-1.276c0 .015.01.03.01.046 0-.016-.01-.031-.01-.047zm2.03 3.871l2.32-4.426a.124.124 0 0 1 .22-.015l2.41 4.426a.132.132 0 0 1-.11.2h-4.73a.127.127 0 0 1-.11-.186z" transform="translate(-1268 -70.906)"/></svg>