<svg xmlns="http://www.w3.org/2000/svg" width="16" height="16" viewBox="0 0 16 16"><defs><style>.cls-1{fill:#d9d9d9;fill-rule:evenodd}</style></defs><path id="Эллипс_1_копия_3" data-name="Эллипс 1 копия 3" class="cls-1" d="M1226.12 182a3.125 3.125 0 1 1-3.12 3.125 3.127 3.127 0 0 1 3.12-3.125zm9.75 0a3.125 3.125 0 1 1-3.12 3.125 3.127 3.127 0 0 1 3.12-3.125zm-9.75 9.75a3.125 3.125 0 1 1-3.12 3.125 3.127 3.127 0 0 1 3.12-3.125zm9.75 0a3.125 3.125 0 1 1-3.12 3.125 3.127 3.127 0 0 1 3.12-3.125z" transform="translate(-1223 -182)"/></svg>